<?xml version="1.0" encoding="utf-8"?>
<!-- Generator: Adobe Illustrator 16.0.0, SVG Export Plug-In . SVG Version: 6.00 Build 0)  -->
<!DOCTYPE svg PUBLIC "-//W3C//DTD SVG 1.1//EN" "http://www.w3.org/Graphics/SVG/1.1/DTD/svg11.dtd" [
	<!ENTITY ns_extend "http://ns.adobe.com/Extensibility/1.0/">
	<!ENTITY ns_ai "http://ns.adobe.com/AdobeIllustrator/10.0/">
	<!ENTITY ns_graphs "http://ns.adobe.com/Graphs/1.0/">
	<!ENTITY ns_vars "http://ns.adobe.com/Variables/1.0/">
	<!ENTITY ns_imrep "http://ns.adobe.com/ImageReplacement/1.0/">
	<!ENTITY ns_sfw "http://ns.adobe.com/SaveForWeb/1.0/">
	<!ENTITY ns_custom "http://ns.adobe.com/GenericCustomNamespace/1.0/">
	<!ENTITY ns_adobe_xpath "http://ns.adobe.com/XPath/1.0/">
]>
<svg version="1.1" id="Layer_1" xmlns:x="&ns_extend;" xmlns:i="&ns_ai;" xmlns:graph="&ns_graphs;"
	 xmlns="http://www.w3.org/2000/svg" xmlns:xlink="http://www.w3.org/1999/xlink" x="0px" y="0px" width="286.5px" height="195.5px"
	 viewBox="0 0 286.5 195.5" enable-background="new 0 0 286.5 195.5" xml:space="preserve">
<metadata>
	<sfw  xmlns="&ns_sfw;">
		<slices></slices>
		<sliceSourceBounds  width="252" height="155.535" y="-497.657" x="79.643" bottomLeftOrigin="true"></sliceSourceBounds>
	</sfw>
</metadata>
<text transform="matrix(1 0 0 1 22.1431 108.001)"><tspan x="0" y="0" font-family="'LucidaSans-Typewriter'" font-size="12"> </tspan><tspan x="7.23" y="0" fill="#0006B8" font-family="'LucidaSans-Typewriter'" font-size="18">var</tspan><tspan x="39.768" y="0" fill="#231F20" font-family="'LucidaSans-Typewriter'" font-size="18"> lommepenge = </tspan><tspan x="191.607" y="0" fill="#006838" font-family="'LucidaSans-Typewriter'" font-size="18">100</tspan><tspan x="224.144" y="0" font-family="'LucidaSans-Typewriter'" font-size="18">;</tspan><tspan x="234.99" y="0" font-family="'LucidaSans-Typewriter'" font-size="12" letter-spacing="9">	</tspan></text>
<polyline fill="none" stroke="#231F20" stroke-miterlimit="10" points="76,91.081 76,85.354 177,85.354 177,91.081 "/>
<line fill="none" stroke="#231F20" stroke-miterlimit="10" x1="126.5" y1="85.354" x2="122" y2="47"/>
<rect x="30.25" y="19.027" fill="none" width="113" height="51.31"/>
<text transform="matrix(1 0 0 1 30.25 26.7368)"><tspan x="0" y="0" font-family="'LucidaBright-Italic'" font-size="10">Variablens navn skal </tspan><tspan x="0" y="12" font-family="'LucidaBright-Italic'" font-size="10">starte med et bogstav. </tspan><tspan x="0" y="24" font-family="'LucidaBright-Italic'" font-size="10">Derefter er tal og </tspan><tspan x="0" y="36" font-family="'LucidaBright-Italic'" font-size="10">bostaver tilladt.</tspan></text>
<rect x="48.877" y="130.763" fill="none" width="118.123" height="42.895"/>
<text transform="matrix(1 0 0 1 48.8774 138.4727)"><tspan x="0" y="0" font-family="'LucidaBright-Italic'" font-size="10">Hvis man vil kan man </tspan><tspan x="0" y="12" font-family="'LucidaBright-Italic'" font-size="10">initialisere (definere en </tspan><tspan x="0" y="24" font-family="'LucidaBright-Italic'" font-size="10">startværdi til) variablen.</tspan></text>
<polyline fill="none" stroke="#231F20" stroke-miterlimit="10" points="194.978,112.272 194.978,118 243.5,118 243.5,112.272 "/>
<line fill="none" stroke="#231F20" stroke-miterlimit="10" x1="167" y1="149.5" x2="219.239" y2="118"/>
</svg>
